<?xml version="1.0" encoding="utf-8"?>
<!-- Generator: Adobe Illustrator 25.3.1, SVG Export Plug-In . SVG Version: 6.00 Build 0)  -->
<svg version="1.1" xmlns="http://www.w3.org/2000/svg" xmlns:xlink="http://www.w3.org/1999/xlink" x="0px" y="0px"
	 viewBox="0 0 1440 900" style="enable-background:new 0 0 1440 900;" xml:space="preserve">
<style type="text/css">
	.st0{fill:#FFFFFF;}
	.st1{fill:#F06A22;stroke:#231F20;stroke-width:0.4851;stroke-linejoin:round;stroke-miterlimit:10;}
	.st2{fill:#E8C0DA;stroke:#231F20;stroke-width:0.4851;stroke-linejoin:round;stroke-miterlimit:10;}
	.st3{fill:#5C240D;stroke:#231F20;stroke-width:0.4851;stroke-linejoin:round;stroke-miterlimit:10;}
	.st4{fill:#FCE3D0;stroke:#231F20;stroke-width:0.4851;stroke-linecap:round;stroke-linejoin:round;stroke-miterlimit:10;}
	.st5{fill:#F8D6BC;stroke:#231F20;stroke-width:0.4851;stroke-miterlimit:10;}
	.st6{fill:#7D4F9F;stroke:#231F20;stroke-width:0.4851;stroke-miterlimit:10;}
	.st7{fill:#7D4F9F;}
	.st8{fill:none;stroke:#231F20;stroke-width:0.4851;stroke-miterlimit:10;}
	.st9{fill:#EC3292;stroke:#231F20;stroke-width:0.4851;stroke-miterlimit:10;}
	.st10{fill:#E8C0DA;stroke:#231F20;stroke-width:0.4851;stroke-miterlimit:10;}
	.st11{fill:#9E6227;stroke:#231F20;stroke-width:0.4851;stroke-linecap:round;stroke-linejoin:round;stroke-miterlimit:10;}
	.st12{clip-path:url(#XMLID_6_);fill:#F3DDEB;}
	.st13{fill:#020202;stroke:#231F20;stroke-width:0.4851;stroke-linejoin:round;stroke-miterlimit:10;}
	.st14{fill:none;stroke:#231F20;stroke-width:0.4851;stroke-linejoin:round;stroke-miterlimit:10;}
	.st15{fill:#F16622;stroke:#231F20;stroke-width:0.4851;stroke-miterlimit:10;}
	.st16{fill:#178943;stroke:#231F20;stroke-width:0.4851;stroke-linejoin:round;stroke-miterlimit:10;}
	.st17{fill:#00FF00;stroke:#231F20;stroke-width:0.4851;stroke-linejoin:round;stroke-miterlimit:10;}
	.st18{fill:#C091C1;}
	.st19{fill:#F16622;}
	.st20{font-family:'H2hdrM';}
	.st21{font-size:30.5226px;}
	.st22{font-family:'BankGothicBT-Medium';}
	.st23{font-size:25.7517px;}
	.st24{fill:#231F20;}
	.st25{display:none;}
	.st26{display:inline;}
	.st27{fill:#F06A22;stroke:#231F20;stroke-width:1.0191;stroke-linejoin:round;stroke-miterlimit:10;}
	.st28{fill:#E8C0DA;stroke:#231F20;stroke-width:1.0191;stroke-linejoin:round;stroke-miterlimit:10;}
	.st29{fill:#5C240D;stroke:#231F20;stroke-width:1.0191;stroke-linejoin:round;stroke-miterlimit:10;}
	.st30{fill:#FCE3D0;stroke:#231F20;stroke-width:1.0191;stroke-linecap:round;stroke-linejoin:round;stroke-miterlimit:10;}
	.st31{fill:#F8D6BC;stroke:#231F20;stroke-width:1.0191;stroke-miterlimit:10;}
	.st32{fill:#7D4F9F;stroke:#231F20;stroke-width:1.0191;stroke-miterlimit:10;}
	.st33{fill:none;stroke:#231F20;stroke-width:1.0191;stroke-miterlimit:10;}
	.st34{fill:#EC3292;stroke:#231F20;stroke-width:1.0191;stroke-miterlimit:10;}
	.st35{fill:#E8C0DA;stroke:#231F20;stroke-width:1.0191;stroke-miterlimit:10;}
	.st36{fill:#9E6227;stroke:#231F20;stroke-width:1.0191;stroke-linecap:round;stroke-linejoin:round;stroke-miterlimit:10;}
	.st37{clip-path:url(#XMLID_7_);fill:#F3DDEB;}
	.st38{fill:#020202;stroke:#231F20;stroke-width:1.0191;stroke-linejoin:round;stroke-miterlimit:10;}
	.st39{fill:none;stroke:#231F20;stroke-width:1.0191;stroke-linejoin:round;stroke-miterlimit:10;}
	.st40{fill:#F16622;stroke:#231F20;stroke-width:1.0191;stroke-miterlimit:10;}
	.st41{fill:#178943;stroke:#231F20;stroke-width:1.0191;stroke-linejoin:round;stroke-miterlimit:10;}
	.st42{fill:#00FF00;stroke:#231F20;stroke-width:1.0191;stroke-linejoin:round;stroke-miterlimit:10;}
	.st43{display:inline;fill:#7D4F9F;}
	.st44{font-size:64.1229px;}
	.st45{display:inline;fill:#F16622;}
	.st46{font-size:54.1001px;}
	.st47{display:inline;fill:#231F20;}
	.st48{display:inline;fill:none;}
</style>
<g id="배경">
	<g>
		<defs>
			<rect id="SVGID_1_" y="0" width="1440" height="653.6"/>
		</defs>
		<clipPath id="SVGID_2_">
			<use xlink:href="#SVGID_1_"  style="overflow:visible;"/>
		</clipPath>
		<g style="clip-path:url(#SVGID_2_);">
			
				<image style="overflow:visible;" width="1919" height="871" xlink:href="4F0B3782.jpg"  transform="matrix(0.7504 0 0 0.7504 0 0)">
			</image>
		</g>
	</g>
	<g>
		<rect x="265" y="7" class="st0" width="159" height="48"/>
	</g>
</g>
<g id="로고">
	<g>
		<g>
			<g>
				<g>
					<polygon class="st1" points="334.9,52.1 340.8,52.1 341.1,49.6 334.9,49.6 					"/>
					<polygon class="st2" points="334.9,58.9 340.2,58.9 340.8,52.1 334.9,52.1 					"/>
					<polygon class="st1" points="350.7,49.6 344.6,49.6 344.8,52.1 350.7,52.1 					"/>
					<polygon class="st2" points="344.8,52.1 345.5,58.9 350.7,58.9 350.7,52.1 					"/>
					<polygon class="st2" points="350.7,37.5 334.9,37.5 334.9,49.6 341.1,49.6 341.8,42.5 343.9,42.5 344.6,49.6 350.7,49.6 					
						"/>
				</g>
				<g>
					<g>
						<path class="st1" d="M337.5,56.9c-1.5,0-2.8,0.8-3.5,1.9h6.9C340.3,57.7,339,56.9,337.5,56.9z"/>
						<path class="st3" d="M334.1,58.9c-0.4,0.6-0.6,1.4-0.6,2.1h8.1c0-0.8-0.2-1.5-0.6-2.1H334.1z"/>
					</g>
					<g>
						<path class="st1" d="M348.1,56.9c1.5,0,2.8,0.8,3.5,1.9h-6.9C345.4,57.7,346.6,56.9,348.1,56.9z"/>
						<path class="st3" d="M351.6,58.9c0.4,0.6,0.6,1.4,0.6,2.1H344c0-0.8,0.2-1.5,0.6-2.1H351.6z"/>
					</g>
				</g>
			</g>
			<g>
				<rect x="340.1" y="19.9" class="st4" width="5.5" height="6.9"/>
				<g>
					<g>
						<path class="st5" d="M330.6,35.6l-0.2,1.2c-0.2,1.3,0.6,2.5,1.9,2.7c1.3,0.2,2.5-0.6,2.7-1.9l0.2-1.2L330.6,35.6z"/>
						<path id="XMLID_2_" class="st6" d="M336.9,26.7c0.2-1.3-0.6-2.5-1.9-2.7s-2.5,0.6-2.7,1.9l-1.7,9.6l4.6,0.8L336.9,26.7z"/>
					</g>
					<g>
						<path class="st5" d="M355.1,35.6l0.2,1.2c0.2,1.3-0.6,2.5-1.9,2.7c-1.3,0.2-2.5-0.6-2.7-1.9l-0.2-1.2L355.1,35.6z"/>
						<path class="st6" d="M348.8,26.7c-0.2-1.3,0.6-2.5,1.9-2.7c1.3-0.2,2.5,0.6,2.7,1.9l1.7,9.6l-4.6,0.8L348.8,26.7z"/>
					</g>
				</g>
				<g>
					<path class="st7" d="M338.2,39.1c0-0.5,0.4-1,1-1h7.2c0.5,0,1,0.4,1,1v0.4c0,0.5,0.4,1,1,1h3.4c0.5,0,0.9-0.4,0.8-1L350,24.2
						c-0.1-0.5-0.6-1-1.1-1h-1.6c-0.5,0-1,0.4-1,0.9c0,0.5-0.4,0.9-1,0.9h-4.9c-0.5,0-1-0.4-1-0.9c0-0.5-0.4-0.9-1-0.9h-1.6
						c-0.5,0-1,0.4-1.1,1L333,39.5c-0.1,0.5,0.3,1,0.8,1h3.4c0.5,0,1-0.4,1-1V39.1z"/>
					<path class="st8" d="M338.2,39.1c0-0.5,0.4-1,1-1h7.2c0.5,0,1,0.4,1,1v0.4c0,0.5,0.4,1,1,1h3.4c0.5,0,0.9-0.4,0.8-1L350,24.2
						c-0.1-0.5-0.6-1-1.1-1h-1.6c-0.5,0-1,0.4-1,0.9c0,0.5-0.4,0.9-1,0.9h-4.9c-0.5,0-1-0.4-1-0.9c0-0.5-0.4-0.9-1-0.9h-1.6
						c-0.5,0-1,0.4-1.1,1L333,39.5c-0.1,0.5,0.3,1,0.8,1h3.4c0.5,0,1-0.4,1-1V39.1z"/>
				</g>
				<g>
					<rect x="339.7" y="27.1" class="st9" width="6.3" height="1.5"/>
					<polygon class="st10" points="339.7,28.6 339.7,32.2 342.8,34 346,32.2 346,28.6 					"/>
				</g>
			</g>
		</g>
		<g>
			<g>
				<path class="st11" d="M344.8,21.6h-4.4c-4.1,0-7.4-3.3-7.4-7.4v0h19.1v0C352.1,18.3,348.8,21.6,344.8,21.6z"/>
				<g>
					<defs>
						<path id="XMLID_3_" d="M350.4,15.2c0,4.3-3.5,7.9-7.9,7.9s-7.9-3.5-7.9-7.9H350.4z"/>
					</defs>
					<use xlink:href="#XMLID_3_"  style="overflow:visible;fill:#FBE9BD;"/>
					<clipPath id="XMLID_6_">
						<use xlink:href="#XMLID_3_"  style="overflow:visible;"/>
					</clipPath>
					<circle class="st12" cx="337.6" cy="20.7" r="2.2"/>
					<circle class="st12" cx="347.6" cy="20.7" r="2.2"/>
					<use xlink:href="#XMLID_3_"  style="overflow:visible;fill:none;stroke:#231F20;stroke-width:0.4851;stroke-miterlimit:10;"/>
				</g>
				<g>
					<circle class="st13" cx="339.5" cy="17.1" r="1.1"/>
					<circle class="st13" cx="345.7" cy="17.1" r="1.1"/>
				</g>
				<g>
					<path class="st14" d="M340.3,20.5c1.3,1.2,3.3,1.2,4.5,0"/>
				</g>
			</g>
			<g>
				<path class="st15" d="M334.4,12.2c0-4.5,3.7-8.2,8.2-8.2s8.2,3.7,8.2,8.2H334.4z"/>
				<g>
					<path class="st16" d="M348.4,3.1c-0.7,0.5-1.3,1.2-1.7,2l1.7,1.5V3.1z"/>
					<path class="st16" d="M350.1,5.1c-0.4-0.8-1-1.5-1.7-2v3.5L350.1,5.1z"/>
					<path class="st16" d="M348.4,6.6l-1.7-1.5c-0.3,0.7-0.5,1.5-0.5,2.3l2.2,2V6.6z"/>
					<path class="st16" d="M348.4,12c1.3-0.9,2.2-2.6,2.2-4.5c0,0,0-0.1,0-0.1l-2.2,2V12z"/>
					<path class="st16" d="M346.2,7.4c0,0,0,0.1,0,0.1c0,1.9,0.9,3.6,2.2,4.5V9.4L346.2,7.4z"/>
					<path class="st17" d="M348.4,6.6v2.8l2.2-2c0-0.8-0.2-1.6-0.5-2.3L348.4,6.6z"/>
				</g>
				<g>
					<g>
						<g>
							<path class="st18" d="M340,9.3c-0.4,0-0.9,0.3-1.1,0.7l-0.6,1.4c-0.2,0.4,0.1,0.7,0.5,0.7h0.6c0.4,0,0.9-0.3,1.1-0.7l0.6-1.4
								c0.2-0.4-0.1-0.7-0.5-0.7H340z"/>
							<path class="st8" d="M340,9.3c-0.4,0-0.9,0.3-1.1,0.7l-0.6,1.4c-0.2,0.4,0.1,0.7,0.5,0.7h0.6c0.4,0,0.9-0.3,1.1-0.7l0.6-1.4
								c0.2-0.4-0.1-0.7-0.5-0.7H340z"/>
						</g>
						<g>
							<path class="st18" d="M335.2,9.3c-0.4,0-0.8,0.3-0.8,0.8v1.3c0,0.4,0.3,0.8,0.8,0.8h0c0.4,0,0.9-0.3,1.1-0.7l0.6-1.4
								c0.2-0.4-0.1-0.7-0.5-0.7H335.2z"/>
							<path class="st8" d="M335.2,9.3c-0.4,0-0.8,0.3-0.8,0.8v1.3c0,0.4,0.3,0.8,0.8,0.8h0c0.4,0,0.9-0.3,1.1-0.7l0.6-1.4
								c0.2-0.4-0.1-0.7-0.5-0.7H335.2z"/>
						</g>
						<g>
							<path class="st18" d="M342.2,9.3c-0.4,0-0.9,0.3-1.1,0.7l-0.6,1.4c-0.2,0.4,0.1,0.7,0.5,0.7h0.6c0.4,0,0.9-0.3,1.1-0.7
								l0.6-1.4c0.2-0.4-0.1-0.7-0.5-0.7H342.2z"/>
							<path class="st8" d="M342.2,9.3c-0.4,0-0.9,0.3-1.1,0.7l-0.6,1.4c-0.2,0.4,0.1,0.7,0.5,0.7h0.6c0.4,0,0.9-0.3,1.1-0.7
								l0.6-1.4c0.2-0.4-0.1-0.7-0.5-0.7H342.2z"/>
						</g>
						<g>
							<path class="st18" d="M337.9,9.3c-0.4,0-0.9,0.3-1.1,0.7l-0.6,1.4c-0.2,0.4,0.1,0.7,0.5,0.7h0.6c0.4,0,0.9-0.3,1.1-0.7
								L339,10c0.2-0.4-0.1-0.7-0.5-0.7H337.9z"/>
							<path class="st8" d="M337.9,9.3c-0.4,0-0.9,0.3-1.1,0.7l-0.6,1.4c-0.2,0.4,0.1,0.7,0.5,0.7h0.6c0.4,0,0.9-0.3,1.1-0.7L339,10
								c0.2-0.4-0.1-0.7-0.5-0.7H337.9z"/>
						</g>
						<g>
							<path class="st18" d="M346.4,9.3c-0.4,0-0.9,0.3-1.1,0.7l-0.6,1.4c-0.2,0.4,0.1,0.7,0.5,0.7h0.6c0.4,0,0.9-0.3,1.1-0.7
								l0.6-1.4c0.2-0.4-0.1-0.7-0.5-0.7H346.4z"/>
							<path class="st8" d="M346.4,9.3c-0.4,0-0.9,0.3-1.1,0.7l-0.6,1.4c-0.2,0.4,0.1,0.7,0.5,0.7h0.6c0.4,0,0.9-0.3,1.1-0.7
								l0.6-1.4c0.2-0.4-0.1-0.7-0.5-0.7H346.4z"/>
						</g>
						<g>
							<path class="st18" d="M349,11.4c-0.2,0.4,0.1,0.7,0.5,0.7h0.5c0.4,0,0.8-0.3,0.8-0.8v-1.3c0-0.4-0.2-0.8-0.4-0.8
								s-0.6,0.3-0.7,0.7L349,11.4z"/>
							<path class="st8" d="M349,11.4c-0.2,0.4,0.1,0.7,0.5,0.7h0.5c0.4,0,0.8-0.3,0.8-0.8v-1.3c0-0.4-0.2-0.8-0.4-0.8
								s-0.6,0.3-0.7,0.7L349,11.4z"/>
						</g>
						<g>
							<path class="st18" d="M348.6,9.3c-0.4,0-0.9,0.3-1.1,0.7l-0.6,1.4c-0.2,0.4,0.1,0.7,0.5,0.7h0.6c0.4,0,0.9-0.3,1.1-0.7
								l0.6-1.4c0.2-0.4-0.1-0.7-0.5-0.7H348.6z"/>
							<path class="st8" d="M348.6,9.3c-0.4,0-0.9,0.3-1.1,0.7l-0.6,1.4c-0.2,0.4,0.1,0.7,0.5,0.7h0.6c0.4,0,0.9-0.3,1.1-0.7
								l0.6-1.4c0.2-0.4-0.1-0.7-0.5-0.7H348.6z"/>
						</g>
						<g>
							<path class="st18" d="M344.3,9.3c-0.4,0-0.9,0.3-1.1,0.7l-0.6,1.4c-0.2,0.4,0.1,0.7,0.5,0.7h0.6c0.4,0,0.9-0.3,1.1-0.7
								l0.6-1.4c0.2-0.4-0.1-0.7-0.5-0.7H344.3z"/>
							<path class="st8" d="M344.3,9.3c-0.4,0-0.9,0.3-1.1,0.7l-0.6,1.4c-0.2,0.4,0.1,0.7,0.5,0.7h0.6c0.4,0,0.9-0.3,1.1-0.7
								l0.6-1.4c0.2-0.4-0.1-0.7-0.5-0.7H344.3z"/>
						</g>
					</g>
				</g>
				<g>
					<path class="st19" d="M355.1,14c0.5,0.6,0.2,1.2-0.6,1.2h-23.1c-0.8,0-1.1-0.5-0.6-1.2l0.4-0.5c0.5-0.6,1.5-1.2,2.3-1.2h18.8
						c0.8,0,1.8,0.5,2.3,1.2L355.1,14z"/>
					<path class="st8" d="M355.1,14c0.5,0.6,0.2,1.2-0.6,1.2h-23.1c-0.8,0-1.1-0.5-0.6-1.2l0.4-0.5c0.5-0.6,1.5-1.2,2.3-1.2h18.8
						c0.8,0,1.8,0.5,2.3,1.2L355.1,14z"/>
				</g>
			</g>
		</g>
	</g>
	<text transform="matrix(0.5832 0 0 1 360.001 29.2007)" class="st7 st20 st21">걸스카우트</text>
	<text transform="matrix(0.3133 0 0 1 362.5742 59.5195)" class="st19 st22 st23">Girl Scouts Korea</text>
	<rect x="363" y="39" class="st24" width="85" height="2"/>
</g>
<g id="저장용" class="st25">
	<g class="st26">
		<g>
			<g>
				<g>
					<polygon class="st27" points="223.7,196.8 236.1,196.8 236.6,191.5 223.7,191.5 					"/>
					<polygon class="st28" points="223.7,211.1 234.7,211.1 236.1,196.8 223.7,196.8 					"/>
					<polygon class="st27" points="256.9,191.5 244,191.5 244.5,196.8 256.9,196.8 					"/>
					<polygon class="st28" points="244.5,196.8 245.9,211.1 256.9,211.1 256.9,196.8 					"/>
					<polygon class="st28" points="256.9,166.2 223.7,166.2 223.7,191.5 236.6,191.5 238,176.6 242.5,176.6 244,191.5 256.9,191.5 
											"/>
				</g>
				<g>
					<g>
						<path class="st27" d="M229.2,207c-3.1,0-5.8,1.6-7.3,4.1h14.6C234.9,208.6,232.2,207,229.2,207z"/>
						<path class="st29" d="M221.9,211.1c-0.8,1.3-1.3,2.8-1.3,4.5h17.1c0-1.6-0.5-3.2-1.3-4.5H221.9z"/>
					</g>
					<g>
						<path class="st27" d="M251.4,207c3.1,0,5.8,1.6,7.3,4.1h-14.6C245.6,208.6,248.3,207,251.4,207z"/>
						<path class="st29" d="M258.7,211.1c0.8,1.3,1.3,2.8,1.3,4.5h-17.1c0-1.6,0.5-3.2,1.3-4.5H258.7z"/>
					</g>
				</g>
			</g>
			<g>
				<rect x="234.5" y="129.1" class="st30" width="11.6" height="14.5"/>
				<g>
					<g>
						<path class="st31" d="M214.5,162.1l-0.5,2.6c-0.5,2.7,1.3,5.2,4,5.7c2.7,0.5,5.2-1.3,5.7-4l0.5-2.6L214.5,162.1z"/>
						<path id="XMLID_4_" class="st32" d="M227.7,143.6c0.5-2.7-1.3-5.2-4-5.7c-2.7-0.5-5.2,1.3-5.7,4l-3.6,20.3l9.6,1.7
							L227.7,143.6z"/>
					</g>
					<g>
						<path class="st31" d="M266,162.1l0.5,2.6c0.5,2.7-1.3,5.2-4,5.7c-2.7,0.5-5.2-1.3-5.7-4l-0.5-2.6L266,162.1z"/>
						<path class="st32" d="M252.8,143.6c-0.5-2.7,1.3-5.2,4-5.7c2.7-0.5,5.2,1.3,5.7,4l3.6,20.3l-9.6,1.7L252.8,143.6z"/>
					</g>
				</g>
				<g>
					<path class="st7" d="M230.7,169.5c0-1.1,0.9-2,2-2h15.2c1.1,0,2,0.9,2,2v0.8c0,1.1,0.9,2,2,2h7.2c1.1,0,1.9-0.9,1.7-2
						l-5.4-32.1c-0.2-1.1-1.3-2-2.4-2h-3.5c-1.1,0-2,0.8-2,1.8c0,1-0.9,1.8-2,1.8h-10.4c-1.1,0-2-0.8-2-1.8c0-1-0.9-1.8-2-1.8h-3.5
						c-1.1,0-2.2,0.9-2.4,2l-5.4,32.1c-0.2,1.1,0.6,2,1.7,2h7.2c1.1,0,2-0.9,2-2V169.5z"/>
					<path class="st33" d="M230.7,169.5c0-1.1,0.9-2,2-2h15.2c1.1,0,2,0.9,2,2v0.8c0,1.1,0.9,2,2,2h7.2c1.1,0,1.9-0.9,1.7-2
						l-5.4-32.1c-0.2-1.1-1.3-2-2.4-2h-3.5c-1.1,0-2,0.8-2,1.8c0,1-0.9,1.8-2,1.8h-10.4c-1.1,0-2-0.8-2-1.8c0-1-0.9-1.8-2-1.8h-3.5
						c-1.1,0-2.2,0.9-2.4,2l-5.4,32.1c-0.2,1.1,0.6,2,1.7,2h7.2c1.1,0,2-0.9,2-2V169.5z"/>
				</g>
				<g>
					<rect x="233.6" y="144.3" class="st34" width="13.2" height="3.2"/>
					<polygon class="st35" points="233.6,147.5 233.6,155.1 240.3,158.8 246.9,155.1 246.9,147.5 					"/>
				</g>
			</g>
		</g>
		<g>
			<g>
				<path class="st36" d="M252.4,132.8H227c-4.1,0-7.4-3.3-7.4-7.4v-8.1h40.2v8.1C259.8,129.5,256.5,132.8,252.4,132.8z"/>
				<g>
					<defs>
						<path id="XMLID_1_" d="M256.3,119.3c0,9.1-7.4,16.5-16.5,16.5s-16.5-7.4-16.5-16.5H256.3z"/>
					</defs>
					<use xlink:href="#XMLID_1_"  style="overflow:visible;fill:#FBE9BD;"/>
					<clipPath id="XMLID_7_">
						<use xlink:href="#XMLID_1_"  style="overflow:visible;"/>
					</clipPath>
					<circle class="st37" cx="229.2" cy="130.9" r="4.7"/>
					<circle class="st37" cx="250.3" cy="130.9" r="4.7"/>
					<use xlink:href="#XMLID_1_"  style="overflow:visible;fill:none;stroke:#231F20;stroke-width:1.0191;stroke-miterlimit:10;"/>
				</g>
				<g>
					<circle class="st38" cx="233.2" cy="123.2" r="2.2"/>
					<circle class="st38" cx="246.3" cy="123.2" r="2.2"/>
				</g>
				<g>
					<path class="st39" d="M235,130.6c2.7,2.5,6.9,2.5,9.6,0"/>
				</g>
			</g>
			<g>
				<path class="st40" d="M222.6,113c0-9.5,7.7-17.2,17.2-17.2S257,103.5,257,113H222.6z"/>
				<g>
					<path class="st41" d="M251.9,93.8c-1.5,1-2.7,2.5-3.5,4.2l3.5,3.1V93.8z"/>
					<path class="st41" d="M255.5,98.1c-0.8-1.8-2-3.2-3.5-4.2v7.4L255.5,98.1z"/>
					<path class="st41" d="M251.9,101.2l-3.5-3.1c-0.7,1.5-1.1,3.1-1.1,4.9l4.6,4.1V101.2z"/>
					<path class="st41" d="M251.9,112.7c2.8-1.9,4.6-5.4,4.6-9.4c0-0.1,0-0.2,0-0.3l-4.6,4.1V112.7z"/>
					<path class="st41" d="M247.3,103c0,0.1,0,0.2,0,0.3c0,4,1.9,7.6,4.6,9.4v-5.5L247.3,103z"/>
					<path class="st42" d="M251.9,101.2v5.9l4.6-4.1c0-1.8-0.4-3.5-1.1-4.9L251.9,101.2z"/>
				</g>
				<g>
					<g>
						<g>
							<path class="st18" d="M234.4,106.9c-0.9,0-1.9,0.7-2.3,1.5l-1.2,2.9c-0.3,0.8,0.1,1.5,1,1.5h1.2c0.9,0,1.9-0.7,2.3-1.5
								l1.2-2.9c0.3-0.8-0.1-1.5-1-1.5H234.4z"/>
							<path class="st33" d="M234.4,106.9c-0.9,0-1.9,0.7-2.3,1.5l-1.2,2.9c-0.3,0.8,0.1,1.5,1,1.5h1.2c0.9,0,1.9-0.7,2.3-1.5
								l1.2-2.9c0.3-0.8-0.1-1.5-1-1.5H234.4z"/>
						</g>
						<g>
							<path class="st18" d="M224.2,106.9c-0.9,0-1.6,0.7-1.6,1.6v2.6c0,0.9,0.7,1.6,1.6,1.6h0c0.9,0,1.9-0.7,2.3-1.5l1.2-2.9
								c0.3-0.8-0.1-1.5-1-1.5H224.2z"/>
							<path class="st33" d="M224.2,106.9c-0.9,0-1.6,0.7-1.6,1.6v2.6c0,0.9,0.7,1.6,1.6,1.6h0c0.9,0,1.9-0.7,2.3-1.5l1.2-2.9
								c0.3-0.8-0.1-1.5-1-1.5H224.2z"/>
						</g>
						<g>
							<path class="st18" d="M238.9,106.9c-0.9,0-1.9,0.7-2.3,1.5l-1.2,2.9c-0.3,0.8,0.1,1.5,1,1.5h1.2c0.9,0,1.9-0.7,2.3-1.5
								l1.2-2.9c0.3-0.8-0.1-1.5-1-1.5H238.9z"/>
							<path class="st33" d="M238.9,106.9c-0.9,0-1.9,0.7-2.3,1.5l-1.2,2.9c-0.3,0.8,0.1,1.5,1,1.5h1.2c0.9,0,1.9-0.7,2.3-1.5
								l1.2-2.9c0.3-0.8-0.1-1.5-1-1.5H238.9z"/>
						</g>
						<g>
							<path class="st18" d="M230,106.9c-0.9,0-1.9,0.7-2.3,1.5l-1.2,2.9c-0.3,0.8,0.1,1.5,1,1.5h1.2c0.9,0,1.9-0.7,2.3-1.5l1.2-2.9
								c0.3-0.8-0.1-1.5-1-1.5H230z"/>
							<path class="st33" d="M230,106.9c-0.9,0-1.9,0.7-2.3,1.5l-1.2,2.9c-0.3,0.8,0.1,1.5,1,1.5h1.2c0.9,0,1.9-0.7,2.3-1.5l1.2-2.9
								c0.3-0.8-0.1-1.5-1-1.5H230z"/>
						</g>
						<g>
							<path class="st18" d="M247.8,106.9c-0.9,0-1.9,0.7-2.3,1.5l-1.2,2.9c-0.3,0.8,0.1,1.5,1,1.5h1.2c0.9,0,1.9-0.7,2.3-1.5
								l1.2-2.9c0.3-0.8-0.1-1.5-1-1.5H247.8z"/>
							<path class="st33" d="M247.8,106.9c-0.9,0-1.9,0.7-2.3,1.5l-1.2,2.9c-0.3,0.8,0.1,1.5,1,1.5h1.2c0.9,0,1.9-0.7,2.3-1.5
								l1.2-2.9c0.3-0.8-0.1-1.5-1-1.5H247.8z"/>
						</g>
						<g>
							<path class="st18" d="M253.3,111.3c-0.3,0.8,0.1,1.5,1,1.5h1c0.9,0,1.6-0.7,1.6-1.6v-2.6c0-0.9-0.4-1.6-0.9-1.6
								c-0.5,0-1.2,0.7-1.5,1.5L253.3,111.3z"/>
							<path class="st33" d="M253.3,111.3c-0.3,0.8,0.1,1.5,1,1.5h1c0.9,0,1.6-0.7,1.6-1.6v-2.6c0-0.9-0.4-1.6-0.9-1.6
								c-0.5,0-1.2,0.7-1.5,1.5L253.3,111.3z"/>
						</g>
						<g>
							<path class="st18" d="M252.3,106.9c-0.9,0-1.9,0.7-2.3,1.5l-1.2,2.9c-0.3,0.8,0.1,1.5,1,1.5h1.2c0.9,0,1.9-0.7,2.3-1.5
								l1.2-2.9c0.3-0.8-0.1-1.5-1-1.5H252.3z"/>
							<path class="st33" d="M252.3,106.9c-0.9,0-1.9,0.7-2.3,1.5l-1.2,2.9c-0.3,0.8,0.1,1.5,1,1.5h1.2c0.9,0,1.9-0.7,2.3-1.5
								l1.2-2.9c0.3-0.8-0.1-1.5-1-1.5H252.3z"/>
						</g>
						<g>
							<path class="st18" d="M243.4,106.9c-0.9,0-1.9,0.7-2.3,1.5l-1.2,2.9c-0.3,0.8,0.1,1.5,1,1.5h1.2c0.9,0,1.9-0.7,2.3-1.5
								l1.2-2.9c0.3-0.8-0.1-1.5-1-1.5H243.4z"/>
							<path class="st33" d="M243.4,106.9c-0.9,0-1.9,0.7-2.3,1.5l-1.2,2.9c-0.3,0.8,0.1,1.5,1,1.5h1.2c0.9,0,1.9-0.7,2.3-1.5
								l1.2-2.9c0.3-0.8-0.1-1.5-1-1.5H243.4z"/>
						</g>
					</g>
				</g>
				<g>
					<path class="st19" d="M266.1,116.8c1,1.3,0.5,2.4-1.2,2.4h-48.5c-1.7,0-2.2-1.1-1.2-2.4l0.9-1.1c1-1.3,3.2-2.4,4.9-2.4h39.4
						c1.7,0,3.9,1.1,4.9,2.4L266.1,116.8z"/>
					<path class="st33" d="M266.1,116.8c1,1.3,0.5,2.4-1.2,2.4h-48.5c-1.7,0-2.2-1.1-1.2-2.4l0.9-1.1c1-1.3,3.2-2.4,4.9-2.4h39.4
						c1.7,0,3.9,1.1,4.9,2.4L266.1,116.8z"/>
				</g>
			</g>
		</g>
	</g>
	<text transform="matrix(0.5832 0 0 1 276.3513 148.7412)" class="st43 st20 st44">걸스카우트</text>
	<text transform="matrix(0.3133 0 0 1 281.7575 212.4366)" class="st45 st22 st46">Girl Scouts Korea</text>
	<rect x="282.7" y="169.3" class="st47" width="178.6" height="4.2"/>
	<rect id="_x3C_Slice_x3E_" x="209" y="92" class="st48" width="255" height="127"/>
</g>
</svg>
